<svg width="31" height="30" viewBox="0 0 31 30" fill="none" xmlns="http://www.w3.org/2000/svg">
<path d="M15.5 0.21875C18.0781 0.21875 20.5391 0.921875 22.7656 2.21094C24.9922 3.5 26.75 5.25781 28.0391 7.48438C29.3281 9.71094 30.0312 12.1719 30.0312 14.75C30.0312 17.3867 29.3281 19.7891 28.0391 22.0156C26.75 24.2422 24.9922 26.0586 22.7656 27.3477C20.5391 28.6367 18.0781 29.2812 15.5 29.2812C12.8633 29.2812 10.4609 28.6367 8.23438 27.3477C6.00781 26.0586 4.19141 24.2422 2.90234 22.0156C1.61328 19.7891 0.96875 17.3867 0.96875 14.75C0.96875 12.1719 1.61328 9.71094 2.90234 7.48438C4.19141 5.25781 6.00781 3.5 8.23438 2.21094C10.4609 0.921875 12.8633 0.21875 15.5 0.21875ZM15.5 6.66406C14.7969 6.66406 14.2109 6.95703 13.7422 7.42578C13.2734 7.89453 13.0391 8.48047 13.0391 9.125C13.0391 9.82812 13.2734 10.4141 13.7422 10.8828C14.2109 11.3516 14.7969 11.5859 15.5 11.5859C16.1445 11.5859 16.7305 11.3516 17.1992 10.8828C17.668 10.4141 17.9609 9.82812 17.9609 9.125C17.9609 8.48047 17.668 7.89453 17.1992 7.42578C16.7305 6.95703 16.1445 6.66406 15.5 6.66406ZM18.7812 21.5469V20.1406C18.7812 19.9648 18.6641 19.7891 18.5469 19.6719C18.4297 19.5547 18.2539 19.4375 18.0781 19.4375H17.375V13.5781C17.375 13.4023 17.2578 13.2266 17.1406 13.1094C17.0234 12.9922 16.8477 12.875 16.6719 12.875H12.9219C12.6875 12.875 12.5117 12.9922 12.3945 13.1094C12.2773 13.2266 12.2188 13.4023 12.2188 13.5781V14.9844C12.2188 15.2188 12.2773 15.3945 12.3945 15.5117C12.5117 15.6289 12.6875 15.6875 12.9219 15.6875H13.625V19.4375H12.9219C12.6875 19.4375 12.5117 19.5547 12.3945 19.6719C12.2773 19.7891 12.2188 19.9648 12.2188 20.1406V21.5469C12.2188 21.7812 12.2773 21.957 12.3945 22.0742C12.5117 22.1914 12.6875 22.25 12.9219 22.25H18.0781C18.2539 22.25 18.4297 22.1914 18.5469 22.0742C18.6641 21.957 18.7812 21.7812 18.7812 21.5469Z" fill="#DFDEDE"/>
</svg>
